<?xml version="1.0" encoding="UTF-8" standalone="no"?>
<!-- Created with Inkscape (http://www.inkscape.org/) -->

<svg
   width="197.34772mm"
   height="190.99474mm"
   viewBox="0 0 197.34772 190.99474"
   version="1.1"
   id="svg1"
   xml:space="preserve"
   xmlns="http://www.w3.org/2000/svg"
   xmlns:svg="http://www.w3.org/2000/svg"><defs
     id="defs1" /><g
     id="layer1"
     transform="translate(-5.6261741,-42.628147)"><g
       id="g2"
       transform="translate(-171.38841,-1.4648582)"><path
         style="fill:#ca2128"
         d="m 279.90618,234.64824 c -20.70329,-16.57075 -39.25649,-34.03885 -56.64198,-53.32923 -10.93499,-12.1331 -22.63804,-26.57073 -30.77633,-37.9676 -8.99456,-12.596 -13.6564,-22.62132 -15.06503,-32.39746 -0.31588,-2.19229 -0.41114,-3.60208 -0.40819,-6.0412 0.004,-3.51511 0.3795,-6.36402 1.2588,-9.556725 3.43223,-12.462344 13.52522,-23.383336 26.83096,-29.032111 4.3829,-1.860701 8.55377,-2.951544 13.63133,-3.565117 2.03548,-0.245967 6.49397,-0.273201 8.55134,-0.05223 14.45013,1.551985 27.73939,9.403035 37.5735,22.197733 5.92203,7.704882 10.33557,17.36533 12.08099,26.44312 0.14325,0.74506 0.28848,1.46516 0.32273,1.60021 0.0496,0.19562 0.21538,-0.34672 0.81522,-2.667 2.3959,-9.26771 4.12783,-15.318741 5.86204,-20.480877 4.80114,-14.291256 10.52136,-24.211689 18.33492,-31.797779 7.68899,-7.465148 16.55626,-12.159984 25.55226,-13.528803 2.03693,-0.309938 2.03553,-0.309826 4.57433,-0.364539 2.52781,-0.05448 4.10498,0.02922 6.009,0.318888 6.42924,0.978103 12.42033,3.759952 17.88147,8.30292 1.36153,1.132622 4.19368,3.963989 5.38929,5.387793 7.46049,8.884455 12.00231,20.519248 12.61983,32.32828 0.12806,2.448999 0.0469,5.79444 -0.2143,8.835906 -0.68801,8.010501 -2.86664,16.661811 -6.4497,25.611661 -3.40734,8.51092 -7.98521,17.35626 -14.98605,28.956 -6.7504,11.18477 -14.18101,20.92106 -24.64066,32.28652 -4.78489,5.19925 -6.73706,7.18966 -21.64556,22.06948 -15.01632,14.98744 -18.75834,18.86964 -24.62562,25.54816 -0.64433,0.73343 -1.19716,1.3335 -1.2285,1.3335 -0.0313,0 -0.30408,-0.19777 -0.60609,-0.4395 z"
         id="path2" /></g></g></svg>
